<?xml version="1.0" encoding="UTF-8"?>
<svg xmlns="http://www.w3.org/2000/svg" width="346" height="63" viewBox="0 0 346 63" fill="none">
  <g id="AssetListIconMobile">
    <path d="M22.818 3.79802L4.55532 18.6059L4.55616 5.69921C4.55616 5.19544 4.75667 4.71231 5.11358 4.3561C5.4705 3.99988 5.95459 3.79976 6.45935 3.79976L22.818 3.79802Z" fill="#B5FF00"></path>
    <path d="M27.5255 9.54328e-08V0.191988C27.0742 0.354292 26.6595 0.615958 26.314 0.963376L1.07551 21.4274C0.734051 21.7709 0.463292 22.1788 0.27874 22.6278C0.0941874 23.0768 -0.000534166 23.5581 2.26575e-06 24.0439L0.00236832 60.676C0.00236832 61.2909 0.245092 61.8806 0.67715 62.3154C1.10921 62.7502 1.69521 62.9944 2.30623 62.9944L54.151 63C54.5992 63.0005 55.0433 62.9184 55.4616 62.7581H276.548C276.86 62.9122 277.206 62.9944 277.561 62.9944L329.406 63C329.889 63.0005 330.367 62.9052 330.813 62.7195C331.259 62.5338 331.665 62.2613 332.006 61.9177L344.129 49.7118C344.742 49.0947 345.086 48.2579 345.086 47.3854V3.28975C345.086 2.8577 345.002 2.42987 344.838 2.03069C344.673 1.63152 344.432 1.26881 344.129 0.963313C343.825 0.657811 343.465 0.415494 343.068 0.250205C342.672 0.0849169 342.246 -0.000103979 341.817 9.54328e-08H27.5255Z" fill="#181818"></path>
    <path fill-rule="evenodd" clip-rule="evenodd" d="M332.006 61.9177L344.129 49.7118C344.742 49.0947 345.086 48.2579 345.086 47.3854V3.28975C345.086 2.8577 345.002 2.42987 344.838 2.03069C344.673 1.63152 344.432 1.26881 344.129 0.963313C343.825 0.657811 343.465 0.415494 343.068 0.250205C342.672 0.0849169 342.246 -0.000103979 341.817 9.54328e-08H27.5255V0.191988C27.0742 0.354292 26.6595 0.615958 26.314 0.963376L1.07551 21.4274C0.734051 21.7709 0.463292 22.1788 0.27874 22.6278C0.0941874 23.0768 -0.000534166 23.5581 2.26575e-06 24.0439L0.00236832 60.676C0.00236832 61.2909 0.245092 61.8806 0.67715 62.3154C1.10921 62.7502 1.69521 62.9944 2.30623 62.9944L54.151 63C54.5992 63.0005 55.0433 62.9184 55.4616 62.7581H276.548C276.86 62.9122 277.206 62.9944 277.561 62.9944L329.406 63C329.889 63.0005 330.367 62.9052 330.813 62.7195C331.259 62.5338 331.665 62.2613 332.006 61.9177ZM1.58699 21.9898C1.32853 22.2568 1.12268 22.5712 0.980784 22.9164C0.834005 23.2735 0.758611 23.6564 0.759038 24.0431L0.761405 60.676C0.761405 61.0911 0.925316 61.4883 1.21556 61.7804C1.50565 62.0723 1.89807 62.2354 2.30623 62.2354L54.1511 62.241C54.506 62.2414 54.8585 62.1764 55.19 62.0493L55.3211 61.9991H276.725L276.883 62.0773C277.093 62.1805 277.324 62.2354 277.561 62.2354L329.406 62.241C329.788 62.2414 330.168 62.1659 330.521 62.0187C330.875 61.8716 331.197 61.6555 331.467 61.3827L343.59 49.1768C344.062 48.7025 344.327 48.0582 344.327 47.3854V3.28959C344.327 2.95659 344.262 2.62694 344.136 2.31951C344.009 2.01211 343.824 1.73312 343.591 1.49834C343.357 1.26356 343.08 1.0776 342.776 0.950848C342.472 0.824093 342.146 0.758957 341.817 0.759036L28.1917 0.759036L27.7824 0.906241C27.4362 1.03074 27.1178 1.23155 26.8522 1.4986L26.8236 1.52739L1.58699 21.9898Z" fill="#454545"></path>
  </g>
</svg>
