<?xml version="1.0" encoding="UTF-8"?>
<svg xmlns="http://www.w3.org/2000/svg" width="81" height="69" viewBox="0 0 81 69" fill="none">
  <g id="AssetM">
    <path id="Vector" d="M62.8123 67.9375H62.8119L2.67513 67.9315C2.0667 67.9315 1.48782 67.7038 1.0647 67.3055C0.642423 66.9081 0.410195 66.3745 0.410195 65.8238L0.407451 26.0838L0.40745 26.0834C0.406895 25.6134 0.504818 25.1473 0.696334 24.7115C0.885133 24.2819 1.16157 23.8894 1.51141 23.5565L30.7688 1.36976L30.786 1.35671L30.8017 1.34192C31.4351 0.746271 32.2987 0.407634 33.2041 0.407448C33.2041 0.407448 33.2041 0.407448 33.2042 0.407448L77.2081 0.407448C77.656 0.407346 78.0989 0.490307 78.5114 0.65107C78.9239 0.811821 79.2971 1.0469 79.6104 1.34174C79.9236 1.63654 80.1706 1.98518 80.3386 2.36706C80.5066 2.74886 80.5927 3.15712 80.5926 3.56875V51.4056C80.5926 52.2358 80.2424 53.0375 79.6103 53.6327L79.8896 53.9293L79.6102 53.6327L65.5485 66.8741C65.1915 67.2103 64.7661 67.478 64.2963 67.6609C63.8264 67.8439 63.322 67.938 62.8123 67.9375Z" fill="black" stroke="#363636" stroke-width="0.814895"></path>
    <path id="Vector_2" d="M67.971 16.5821V51.7632C67.971 51.9685 67.8843 52.1654 67.73 52.3106C67.5758 52.4558 67.3666 52.5373 67.1484 52.5373H59.0409C58.8228 52.5373 58.6136 52.4558 58.4593 52.3106C58.305 52.1654 58.2184 51.9685 58.2184 51.7632V25.7619C58.2184 25.6602 58.1971 25.5596 58.1558 25.4656C58.1144 25.3717 58.0539 25.2864 57.9775 25.2145C57.9011 25.1426 57.8104 25.0856 57.7106 25.0467C57.6108 25.0078 57.5039 24.9877 57.3958 24.9877H50.205C49.7858 24.9875 49.3792 25.123 49.0535 25.3714L46.0539 27.6569C45.842 27.8182 45.6711 28.0222 45.5538 28.2538C45.4365 28.4854 45.3756 28.7387 45.3758 28.9953V51.7606C45.3758 51.9659 45.2891 52.1628 45.1349 52.308C44.9806 52.4532 44.7714 52.5347 44.5533 52.5347H36.4449C36.2267 52.5347 36.0175 52.4532 35.8632 52.308C35.709 52.1628 35.6223 51.9659 35.6223 51.7606V25.7619C35.6223 25.5566 35.5357 25.3597 35.3814 25.2145C35.2271 25.0693 35.0179 24.9877 34.7998 24.9877H27.6126C27.1934 24.9875 26.7868 25.123 26.4611 25.3714L23.467 27.6525C23.2548 27.8139 23.0837 28.018 22.9662 28.2497C22.8487 28.4815 22.7878 28.7351 22.788 28.9918V51.7606C22.788 51.9659 22.7013 52.1628 22.547 52.308C22.3928 52.4532 22.1836 52.5347 21.9654 52.5347H13.8506C13.6325 52.5347 13.4232 52.4532 13.269 52.308C13.1147 52.1628 13.0281 51.9659 13.0281 51.7606V31.4726C13.0279 31.2156 13.0888 30.9618 13.2065 30.7299C13.3242 30.498 13.4955 30.2938 13.708 30.1324L32.0351 16.1916C32.3611 15.943 32.768 15.8076 33.1876 15.808H44.5551C44.7732 15.808 44.9825 15.8895 45.1367 16.0347C45.291 16.1799 45.3776 16.3768 45.3776 16.5821V23.2141L54.6312 16.1916C54.9565 15.9444 55.3619 15.8096 55.78 15.8097H67.1475C67.3655 15.8095 67.5747 15.8907 67.7291 16.0355C67.8835 16.1804 67.9705 16.377 67.971 16.5821Z" fill="#B5FF00"></path>
  </g>
</svg>
