<svg xmlns="http://www.w3.org/2000/svg" width="240" height="25" viewBox="0 0 240 25" fill="none"><g id="AssetPlanoAnual"><path d="M0.29657 24.1727L4.42598 0.56626H15.4377C16.9519 0.56626 18.1907 0.807143 19.1542 1.28891C20.1177 1.77067 20.8289 2.43597 21.2877 3.28479C21.7695 4.13361 22.0104 5.13155 22.0104 6.27861C22.0104 7.56332 21.8039 8.73332 21.391 9.78862C21.001 10.8439 20.4389 11.7501 19.7048 12.5071C18.9707 13.2642 18.0989 13.8377 17.0895 14.2277C16.0801 14.6177 14.9675 14.8127 13.7516 14.8127H4.63245L2.98069 24.1727H0.29657ZM5.04539 12.4727H13.6139C14.738 12.4727 15.7245 12.2319 16.5733 11.7501C17.4222 11.2683 18.076 10.5916 18.5348 9.71979C19.0166 8.82509 19.2575 7.76979 19.2575 6.55391C19.2575 5.40685 18.9248 4.51214 18.2595 3.86979C17.6172 3.22744 16.6192 2.90626 15.2657 2.90626H6.73157L5.04539 12.4727Z" fill="white"></path><path d="M23.0801 24.1727L27.2095 0.56626H29.8936L26.1772 21.7983H37.8772L37.4642 24.1727H23.0801Z" fill="white"></path><path d="M38.5149 24.1727L51.7978 0.56626H55.2046L60.1943 24.1727H57.4413L56.1681 17.8066H44.881L41.371 24.1727H38.5149ZM46.2231 15.4666H55.6519L54.069 7.62067C54.0231 7.2995 53.9543 6.95538 53.8625 6.58832C53.7937 6.19832 53.7134 5.79685 53.6216 5.38391C53.5299 4.94803 53.4496 4.53509 53.3808 4.14509C53.3119 3.73214 53.2431 3.36508 53.1743 3.04391H53.0022C52.7728 3.50273 52.4975 4.03038 52.1763 4.62685C51.8552 5.20038 51.5455 5.76244 51.2472 6.31302C50.9719 6.86361 50.7425 7.31097 50.559 7.65509L46.2231 15.4666Z" fill="white"></path><path d="M64.0121 24.1727L68.1415 0.56626H70.7912L79.8071 16.843C79.9448 17.0724 80.0939 17.3592 80.2545 17.7033C80.438 18.0245 80.61 18.3571 80.7706 18.7013C80.9542 19.0454 81.1033 19.3551 81.218 19.6304L81.3901 19.596C81.4359 19.183 81.4933 18.7471 81.5621 18.2883C81.6309 17.8295 81.6998 17.3707 81.7686 16.9118L84.6248 0.56626H87.2745L83.1451 24.1727H80.7706L71.6859 7.86156C71.5024 7.51744 71.2386 7.03567 70.8945 6.41626C70.5733 5.79685 70.3209 5.28067 70.1374 4.86773H69.9309C69.885 5.30361 69.8162 5.79685 69.7245 6.34744C69.6556 6.87508 69.5868 7.33391 69.518 7.72391L66.6618 24.1727H64.0121Z" fill="white"></path><path d="M99.9141 24.5857C97.8035 24.5857 95.9911 24.2416 94.477 23.5533C92.9858 22.8421 91.8388 21.7983 91.0358 20.4219C90.2558 19.0454 89.8658 17.3592 89.8658 15.3633C89.8658 14.7439 89.8888 14.1474 89.9346 13.5739C89.9805 13.0004 90.0493 12.4383 90.1411 11.8877C90.577 9.52479 91.3914 7.47156 92.5844 5.72803C93.7773 3.96156 95.3258 2.59655 97.2299 1.63303C99.1341 0.646555 101.348 0.15332 103.871 0.15332C106.005 0.15332 107.817 0.508908 109.308 1.22008C110.8 1.90832 111.947 2.94067 112.75 4.31714C113.553 5.69361 113.954 7.37979 113.954 9.37567C113.954 9.9492 113.931 10.5227 113.885 11.0963C113.839 11.6698 113.759 12.2319 113.644 12.7824C113.254 15.1454 112.451 17.2101 111.236 18.9766C110.043 20.743 108.483 22.1195 106.556 23.106C104.651 24.0924 102.438 24.5857 99.9141 24.5857ZM100.052 22.2457C101.635 22.2457 103.034 22.0048 104.25 21.523C105.489 21.0413 106.556 20.376 107.45 19.5271C108.368 18.6554 109.102 17.623 109.653 16.4301C110.226 15.2371 110.639 13.918 110.891 12.4727C110.937 12.1745 110.972 11.8992 110.995 11.6468C111.041 11.3716 111.075 11.1192 111.098 10.8898C111.121 10.6374 111.132 10.3966 111.132 10.1671C111.155 9.91479 111.167 9.67391 111.167 9.4445C111.167 7.81567 110.857 6.49656 110.238 5.48714C109.641 4.45479 108.781 3.69773 107.657 3.21597C106.556 2.7342 105.236 2.49332 103.699 2.49332C102.162 2.49332 100.774 2.7342 99.5355 3.21597C98.2967 3.67479 97.2185 4.34008 96.3008 5.21185C95.4061 6.08362 94.672 7.11597 94.0985 8.30891C93.5479 9.50185 93.1464 10.821 92.8941 12.2663C92.8482 12.5416 92.8023 12.8169 92.7564 13.0921C92.7335 13.3445 92.7105 13.5968 92.6876 13.8492C92.6646 14.1016 92.6417 14.3424 92.6188 14.5718C92.6188 14.8013 92.6188 15.0307 92.6188 15.2601C92.6188 16.8889 92.917 18.2195 93.5135 19.2519C94.1329 20.2613 94.9932 21.0183 96.0944 21.523C97.2185 22.0048 98.5376 22.2457 100.052 22.2457Z" fill="white"></path><path d="M122.553 24.1727L131.741 0.56626H137.384L146.607 24.1727H141.755L139.862 19.1486H129.057L127.164 24.1727H122.553ZM130.468 15.3633H138.417L136.042 8.96273C135.951 8.73332 135.836 8.44656 135.698 8.10244C135.584 7.73538 135.457 7.34538 135.32 6.93244C135.182 6.49655 135.044 6.06067 134.907 5.62479C134.769 5.18891 134.643 4.79891 134.528 4.45479H134.356C134.219 4.91361 134.047 5.44126 133.84 6.03773C133.657 6.6342 133.473 7.19626 133.289 7.72391C133.106 8.25156 132.957 8.6645 132.842 8.96273L130.468 15.3633Z" fill="white"></path><path d="M149.394 24.1727V0.56626H153.661L163.743 14.503C163.858 14.6407 163.996 14.8357 164.156 15.088C164.317 15.3174 164.466 15.5469 164.604 15.7763C164.741 16.0057 164.833 16.1892 164.879 16.3269H165.051C165.051 16.0057 165.051 15.696 165.051 15.3977C165.051 15.0995 165.051 14.8013 165.051 14.503V0.56626H169.352V24.1727H165.12L155.003 10.1327C154.819 9.85744 154.601 9.52479 154.349 9.13479C154.119 8.72185 153.959 8.43509 153.867 8.2745H153.695C153.695 8.57273 153.695 8.88244 153.695 9.20361C153.695 9.50185 153.695 9.81156 153.695 10.1327V24.1727H149.394Z" fill="white"></path><path d="M184.405 24.5857C182.34 24.5857 180.562 24.253 179.071 23.5877C177.58 22.9224 176.433 21.913 175.63 20.5595C174.85 19.183 174.46 17.4739 174.46 15.4321V0.56626H178.933V15.2945C178.933 17.1069 179.404 18.4833 180.344 19.4239C181.308 20.3416 182.661 20.8004 184.405 20.8004C186.148 20.8004 187.502 20.3416 188.465 19.4239C189.452 18.4833 189.945 17.1069 189.945 15.2945V0.56626H194.419V15.4321C194.419 17.4739 194.017 19.183 193.214 20.5595C192.411 21.913 191.264 22.9224 189.773 23.5877C188.282 24.253 186.493 24.5857 184.405 24.5857Z" fill="white"></path><path d="M196.552 24.1727L205.74 0.56626H211.383L220.606 24.1727H215.753L213.861 19.1486H203.056L201.163 24.1727H196.552ZM204.466 15.3633H212.416L210.041 8.96273C209.949 8.73332 209.835 8.44656 209.697 8.10244C209.582 7.73538 209.456 7.34538 209.318 6.93244C209.181 6.49655 209.043 6.06067 208.906 5.62479C208.768 5.18891 208.642 4.79891 208.527 4.45479H208.355C208.217 4.91361 208.045 5.44126 207.839 6.03773C207.655 6.6342 207.472 7.19626 207.288 7.72391C207.105 8.25156 206.956 8.6645 206.841 8.96273L204.466 15.3633Z" fill="white"></path><path d="M223.392 24.1727V0.56626H227.866V20.2842H239.704V24.1727H223.392Z" fill="white"></path></g></svg>