<svg xmlns="http://www.w3.org/2000/svg" width="1200" height="852" viewBox="0 0 1200 852" fill="none"><path id="AssetM-Reverso" d="M266.136 0.500053H17.8147C13.2108 0.535269 8.80713 2.38881 5.56384 5.65676C2.32007 8.92517 0.499878 13.3433 0.5 17.9482V834.032C0.5 838.662 2.33752 843.103 5.60901 846.38C8.88062 849.656 13.3187 851.5 17.9489 851.507H194.966C199.6 851.507 204.045 849.666 207.323 846.389C210.6 843.112 212.441 838.667 212.441 834.032V230.916C212.441 226.016 214.387 221.317 217.852 217.852C221.317 214.387 226.016 212.441 230.916 212.441H387.928C397.199 212.441 406.188 215.624 413.392 221.459L413.077 221.847L413.392 221.459L478.823 274.545C483.508 278.342 487.285 283.138 489.879 288.582C492.473 294.026 493.818 299.981 493.816 306.011V834.032C493.816 838.667 495.657 843.112 498.934 846.389C502.211 849.666 506.656 851.507 511.291 851.507H688.309C692.938 851.5 697.376 849.656 700.648 846.38C703.919 843.103 705.757 838.662 705.757 834.032V230.916C705.757 226.016 707.703 221.317 711.168 217.852C714.633 214.387 719.332 212.441 724.232 212.441H881.244C890.515 212.436 899.506 215.62 906.708 221.459L972.084 274.355L972.084 274.356C976.771 278.153 980.552 282.948 983.15 288.391C985.749 293.835 987.1 299.789 987.105 305.821V834.032C987.105 838.662 988.942 843.103 992.214 846.38C995.485 849.656 999.923 851.5 1004.55 851.507H1181.62C1186.26 851.507 1190.7 849.666 1193.98 846.389C1197.26 843.112 1199.1 838.667 1199.1 834.032V363.375C1199.1 357.488 1197.78 351.677 1195.24 346.367C1192.7 341.056 1189.01 336.382 1184.42 332.686L1184.42 332.686L784.259 9.26823L784.258 9.26779C777.243 3.58156 768.483 0.485325 759.452 0.500053H759.451L511.291 0.500054L511.29 0.500052C508.997 0.496593 506.725 0.945337 504.605 1.82064C502.485 2.69593 500.559 3.98064 498.936 5.6012C497.313 7.22175 496.025 9.14632 495.147 11.2649C494.268 13.3836 493.816 15.6547 493.816 17.9482V171.793V172.838L493.002 172.182L290.917 9.24149C283.897 3.58381 275.152 0.499065 266.136 0.500053Z" fill="#F3F3F3" stroke="#E6E6E6"></path></svg>