<svg xmlns="http://www.w3.org/2000/svg" width="267" height="25" viewBox="0 0 267 25" fill="none"><g id="AssetPlanoMensal"><path d="M0.640015 24.0194L4.76943 0.41294H15.7812C17.2953 0.41294 18.5341 0.653823 19.4977 1.13559C20.4612 1.61735 21.1724 2.28265 21.6312 3.13147C22.113 3.98029 22.3538 4.97823 22.3538 6.12529C22.3538 7.41 22.1474 8.58 21.7344 9.63529C21.3444 10.6906 20.7824 11.5968 20.0483 12.3538C19.3141 13.1109 18.4424 13.6844 17.433 14.0744C16.4235 14.4644 15.3109 14.6594 14.095 14.6594H4.9759L3.32413 24.0194H0.640015ZM5.38884 12.3194H13.9574C15.0815 12.3194 16.068 12.0785 16.9168 11.5968C17.7656 11.115 18.4194 10.4382 18.8783 9.56647C19.36 8.67177 19.6009 7.61647 19.6009 6.40059C19.6009 5.25353 19.2683 4.35882 18.603 3.71647C17.9606 3.07412 16.9627 2.75294 15.6091 2.75294H7.07502L5.38884 12.3194Z" fill="white"></path><path d="M23.4236 24.0194L27.553 0.41294H30.2371L26.5206 21.645H38.2206L37.8077 24.0194H23.4236Z" fill="white"></path><path d="M38.8583 24.0194L52.1413 0.41294H55.548L60.5377 24.0194H57.7848L56.5116 17.6532H45.2245L41.7145 24.0194H38.8583ZM46.5665 15.3132H55.9954L54.4124 7.46735C54.3666 7.14618 54.2977 6.80206 54.206 6.435C54.1371 6.045 54.0568 5.64353 53.9651 5.23059C53.8733 4.79471 53.793 4.38177 53.7242 3.99176C53.6554 3.57882 53.5866 3.21176 53.5177 2.89059H53.3457C53.1163 3.34941 52.841 3.87706 52.5198 4.47353C52.1986 5.04706 51.8889 5.60912 51.5907 6.1597C51.3154 6.71029 51.086 7.15765 50.9024 7.50176L46.5665 15.3132Z" fill="white"></path><path d="M64.3556 24.0194L68.485 0.41294H71.1347L80.1506 16.6897C80.2882 16.9191 80.4373 17.2059 80.5979 17.55C80.7814 17.8712 80.9535 18.2038 81.1141 18.5479C81.2976 18.8921 81.4467 19.2018 81.5614 19.4771L81.7335 19.4426C81.7794 19.0297 81.8367 18.5938 81.9056 18.135C81.9744 17.6762 82.0432 17.2174 82.112 16.7585L84.9682 0.41294H87.6179L83.4885 24.0194H81.1141L72.0294 7.70823C71.8459 7.36412 71.582 6.88235 71.2379 6.26294C70.9167 5.64353 70.6644 5.12735 70.4809 4.71441H70.2744C70.2285 5.15029 70.1597 5.64353 70.0679 6.19412C69.9991 6.72176 69.9303 7.18059 69.8614 7.57059L67.0053 24.0194H64.3556Z" fill="white"></path><path d="M100.258 24.4324C98.1469 24.4324 96.3346 24.0882 94.8204 23.4C93.3293 22.6888 92.1822 21.645 91.3793 20.2685C90.5993 18.8921 90.2093 17.2059 90.2093 15.21C90.2093 14.5906 90.2322 13.9941 90.2781 13.4206C90.324 12.8471 90.3928 12.285 90.4846 11.7344C90.9204 9.37147 91.7349 7.31824 92.9278 5.57471C94.1207 3.80823 95.6693 2.44323 97.5734 1.47971C99.4775 0.493235 101.691 0 104.215 0C106.348 0 108.161 0.355588 109.652 1.06676C111.143 1.755 112.29 2.78735 113.093 4.16382C113.896 5.54029 114.298 7.22647 114.298 9.22235C114.298 9.79588 114.275 10.3694 114.229 10.9429C114.183 11.5165 114.103 12.0785 113.988 12.6291C113.598 14.9921 112.795 17.0568 111.579 18.8232C110.386 20.5897 108.826 21.9662 106.899 22.9526C104.995 23.9391 102.781 24.4324 100.258 24.4324ZM100.395 22.0924C101.978 22.0924 103.378 21.8515 104.593 21.3697C105.832 20.8879 106.899 20.2226 107.794 19.3738C108.711 18.5021 109.445 17.4697 109.996 16.2768C110.57 15.0838 110.983 13.7647 111.235 12.3194C111.281 12.0212 111.315 11.7459 111.338 11.4935C111.384 11.2182 111.418 10.9659 111.441 10.7365C111.464 10.4841 111.476 10.2432 111.476 10.0138C111.499 9.76147 111.51 9.52059 111.51 9.29118C111.51 7.66235 111.2 6.34324 110.581 5.33382C109.985 4.30147 109.124 3.54441 108 3.06265C106.899 2.58088 105.58 2.34 104.043 2.34C102.506 2.34 101.118 2.58088 99.879 3.06265C98.6402 3.52147 97.5619 4.18676 96.6443 5.05853C95.7496 5.93029 95.0154 6.96265 94.4419 8.15559C93.8913 9.34853 93.4899 10.6676 93.2375 12.1129C93.1916 12.3882 93.1457 12.6635 93.0999 12.9388C93.0769 13.1912 93.054 13.4435 93.031 13.6959C93.0081 13.9482 92.9852 14.1891 92.9622 14.4185C92.9622 14.6479 92.9622 14.8774 92.9622 15.1068C92.9622 16.7356 93.2604 18.0662 93.8569 19.0985C94.4763 20.1079 95.3366 20.865 96.4378 21.3697C97.5619 21.8515 98.881 22.0924 100.395 22.0924Z" fill="white"></path><path d="M125.34 24.0194V0.41294H132.394L136.111 13.5582C136.248 14.0171 136.386 14.5332 136.523 15.1068C136.661 15.6803 136.787 16.2309 136.902 16.7585C137.04 17.2862 137.143 17.745 137.212 18.135H137.487C137.533 17.7909 137.602 17.3665 137.693 16.8618C137.785 16.3571 137.888 15.8179 138.003 15.2444C138.141 14.6479 138.29 14.0744 138.451 13.5238L142.167 0.41294H149.153V24.0194H144.679V12.0785C144.679 11.0232 144.691 9.96794 144.713 8.91265C144.736 7.85735 144.759 6.95118 144.782 6.19412C144.828 5.43706 144.851 4.98971 144.851 4.85206H144.576C144.53 5.05853 144.415 5.50588 144.232 6.19412C144.048 6.88235 143.853 7.62794 143.647 8.43088C143.44 9.23382 143.257 9.92206 143.096 10.4956L139.208 24.0194H135.078L131.19 10.53C131.052 10.0482 130.891 9.47471 130.708 8.80941C130.547 8.12118 130.375 7.42147 130.192 6.71029C130.031 5.99912 129.882 5.37971 129.744 4.85206H129.469C129.492 5.47147 129.515 6.21706 129.538 7.08882C129.561 7.93765 129.584 8.80941 129.607 9.70412C129.63 10.5759 129.641 11.3674 129.641 12.0785V24.0194H125.34Z" fill="white"></path><path d="M154.375 24.0194V0.41294H172.785V4.23265H158.848V10.0482H171.271V13.8679H158.848V20.1997H172.991V24.0194H154.375Z" fill="white"></path><path d="M177.495 24.0194V0.41294H181.762L191.845 14.3497C191.959 14.4874 192.097 14.6824 192.258 14.9347C192.418 15.1641 192.567 15.3935 192.705 15.6229C192.843 15.8524 192.934 16.0359 192.98 16.1735H193.152C193.152 15.8524 193.152 15.5426 193.152 15.2444C193.152 14.9462 193.152 14.6479 193.152 14.3497V0.41294H197.454V24.0194H193.221L183.104 9.97941C182.921 9.70412 182.703 9.37147 182.45 8.98147C182.221 8.56853 182.06 8.28176 181.969 8.12118H181.796C181.796 8.41941 181.796 8.72912 181.796 9.05029C181.796 9.34853 181.796 9.65824 181.796 9.97941V24.0194H177.495Z" fill="white"></path><path d="M211.508 24.4324C210.201 24.4324 208.95 24.2947 207.757 24.0194C206.565 23.7212 205.509 23.2738 204.592 22.6774C203.674 22.0579 202.951 21.3009 202.424 20.4062C201.896 19.4885 201.632 18.4103 201.632 17.1715C201.632 17.0338 201.632 16.8962 201.632 16.7585C201.655 16.6209 201.667 16.5176 201.667 16.4488H206.174C206.174 16.4947 206.163 16.5865 206.14 16.7241C206.14 16.8388 206.14 16.9421 206.14 17.0338C206.14 17.7909 206.358 18.4447 206.794 18.9953C207.23 19.5229 207.861 19.9359 208.687 20.2341C209.512 20.5094 210.487 20.6471 211.612 20.6471C212.369 20.6471 213.034 20.6012 213.607 20.5094C214.204 20.4176 214.709 20.2915 215.122 20.1309C215.557 19.9474 215.913 19.7409 216.188 19.5115C216.464 19.2591 216.659 18.9838 216.773 18.6856C216.911 18.3874 216.98 18.0662 216.98 17.7221C216.98 17.0568 216.773 16.5062 216.36 16.0703C215.947 15.6344 215.385 15.2674 214.674 14.9691C213.986 14.6709 213.195 14.4071 212.3 14.1776C211.428 13.9253 210.522 13.6729 209.581 13.4206C208.664 13.1682 207.757 12.87 206.863 12.5259C205.991 12.1588 205.2 11.7229 204.488 11.2182C203.8 10.7135 203.25 10.0826 202.837 9.32559C202.424 8.54559 202.217 7.61647 202.217 6.53824C202.217 5.43706 202.447 4.47353 202.905 3.64765C203.387 2.82176 204.052 2.145 204.901 1.61735C205.773 1.06676 206.782 0.665294 207.93 0.41294C209.077 0.137647 210.327 0 211.68 0C212.942 0 214.124 0.137647 215.225 0.41294C216.349 0.665294 217.335 1.07824 218.184 1.65176C219.033 2.20235 219.698 2.91353 220.18 3.78529C220.662 4.63412 220.903 5.655 220.903 6.84794V7.26088H216.464V6.91677C216.464 6.25147 216.257 5.68941 215.844 5.23059C215.454 4.77176 214.892 4.41618 214.158 4.16382C213.447 3.91147 212.61 3.78529 211.646 3.78529C210.614 3.78529 209.73 3.88853 208.996 4.095C208.262 4.27853 207.7 4.56529 207.31 4.95529C206.92 5.32235 206.725 5.78118 206.725 6.33177C206.725 6.90529 206.932 7.38706 207.345 7.77706C207.757 8.16706 208.308 8.49971 208.996 8.775C209.707 9.05029 210.499 9.30265 211.371 9.53206C212.265 9.76147 213.172 10.0138 214.089 10.2891C215.03 10.5415 215.936 10.8397 216.808 11.1838C217.702 11.5279 218.494 11.9638 219.182 12.4915C219.893 12.9962 220.455 13.6271 220.868 14.3841C221.281 15.1412 221.488 16.0474 221.488 17.1026C221.488 18.8691 221.052 20.2915 220.18 21.3697C219.331 22.4479 218.15 23.2279 216.636 23.7097C215.145 24.1915 213.435 24.4324 211.508 24.4324Z" fill="white"></path><path d="M223.208 24.0194L232.396 0.41294H238.04L247.262 24.0194H242.41L240.517 18.9953H229.712L227.819 24.0194H223.208ZM231.123 15.21H239.072L236.697 8.80941C236.606 8.58 236.491 8.29324 236.353 7.94912C236.239 7.58206 236.112 7.19206 235.975 6.77912C235.837 6.34323 235.7 5.90735 235.562 5.47147C235.424 5.03559 235.298 4.64559 235.183 4.30147H235.011C234.874 4.76029 234.702 5.28794 234.495 5.88441C234.312 6.48088 234.128 7.04294 233.945 7.57059C233.761 8.09824 233.612 8.51118 233.497 8.80941L231.123 15.21Z" fill="white"></path><path d="M250.049 24.0194V0.41294H254.522V20.1309H266.36V24.0194H250.049Z" fill="white"></path></g></svg>