<?xml version="1.0" encoding="UTF-8"?>
<svg xmlns="http://www.w3.org/2000/svg" width="1200" height="852" viewBox="0 0 1200 852" fill="none">
  <path id="BigM" d="M1199.6 17.9482V834.032C1199.6 838.795 1197.71 843.363 1194.34 846.733C1190.98 850.103 1186.41 852 1181.65 852.007H1004.63C999.867 852.007 995.294 850.113 991.923 846.742C988.552 843.371 986.659 838.799 986.659 834.032V230.916C986.659 226.149 984.765 221.577 981.394 218.206C978.023 214.835 973.451 212.941 968.684 212.941H811.671C802.516 212.941 793.637 216.085 786.522 221.847L721.092 274.934C716.465 278.684 712.734 283.42 710.172 288.797C707.61 294.174 706.282 300.055 706.284 306.011V834.032C706.284 838.799 704.39 843.371 701.019 846.742C697.648 850.113 693.076 852.007 688.309 852.007H511.291C506.528 852 501.963 850.103 498.598 846.733C495.233 843.363 493.343 838.795 493.343 834.032V230.916C493.343 226.149 491.449 221.577 488.078 218.206C484.707 214.835 480.135 212.941 475.368 212.941H318.356C309.199 212.936 300.319 216.081 293.207 221.847L227.83 274.744C223.201 278.494 219.467 283.23 216.901 288.606C214.334 293.983 213 299.864 212.995 305.822V834.032C212.995 838.795 211.105 843.363 207.74 846.733C204.375 850.103 199.81 852 195.047 852.007H17.9752C13.2079 852.007 8.63582 850.113 5.26482 846.742C1.89382 843.371 0 838.799 0 834.032V363.375C0.000431234 357.414 1.33551 351.528 3.90724 346.151C6.47898 340.773 10.2221 336.04 14.862 332.297L415.026 8.87935C422.131 3.12077 431.003 -0.0148613 440.148 5.29589e-05H688.309C690.668 -0.0035055 693.005 0.458096 695.185 1.35848C697.366 2.25886 699.348 3.58039 701.017 5.24738C702.687 6.91437 704.011 8.89409 704.915 11.0734C705.819 13.2528 706.284 15.5889 706.284 17.9482V171.793L908.369 8.85226C915.478 3.12286 924.334 -0.000947328 933.464 5.29589e-05H1181.79C1186.52 0.0357752 1191.05 1.94249 1194.39 5.30455C1197.73 8.66661 1199.6 13.2114 1199.6 17.9482Z" fill="black"></path>
</svg>
