<?xml version="1.0" encoding="UTF-8"?>
<svg xmlns="http://www.w3.org/2000/svg" width="614" height="78" viewBox="0 0 614 78" fill="none">
  <g id="ComponentList">
    <path id="Vector" d="M5.57979 6.97953C5.57979 6.36259 5.82535 5.77092 6.26245 5.33468C6.69955 4.89844 7.29239 4.65336 7.91054 4.65336L60.3604 4.64779C60.8489 4.64725 61.3327 4.74289 61.784 4.92923C62.2354 5.11557 62.6455 5.38895 62.9909 5.73371L75.2552 17.9803C75.8754 18.5994 76.2237 19.439 76.2237 20.3144V64.557C76.2238 64.9904 76.1384 65.4197 75.9722 65.8202C75.806 66.2207 75.5624 66.5846 75.2553 66.8911C74.9482 67.1977 74.5835 67.4408 74.1822 67.6066C73.7809 67.7725 73.3509 67.8578 72.9165 67.8577H34.5372C33.6601 67.8575 32.8189 67.5098 32.1985 66.8911L6.66545 46.3589C6.32001 46.0142 6.04609 45.6049 5.85939 45.1544C5.67268 44.704 5.57685 44.2211 5.57739 43.7336L5.57979 6.97953Z" fill="#B5FF00"></path>
    <path id="Union" d="M612.006 60.5522L612.335 60.8797L612.005 60.5522L597.159 75.5002C596.784 75.8776 596.339 76.1768 595.849 76.3806C595.36 76.5844 594.835 76.689 594.305 76.6884L579.114 76.6868L578.649 76.6868V76.6885L66.3437 76.6884L66.3428 76.6885L66.3163 76.6885H66.3154L33.9288 76.6885V76.685L33.4641 76.685L2.82439 76.6817C2.20026 76.6817 1.60115 76.4323 1.15896 75.9873C0.716673 75.5422 0.467679 74.9379 0.467679 74.3072L0.464782 29.4456L0.464781 29.4451C0.464191 28.9108 0.568358 28.3816 0.771241 27.888L0.34136 27.7113L0.771241 27.888C0.97104 27.402 1.26268 26.9598 1.62973 26.5861L32.5183 1.54088L32.5376 1.52522L32.5551 1.5076C32.8732 1.18769 33.2454 0.935076 33.6499 0.758645L33.9288 0.636966V0.464779L609.504 0.464779C609.969 0.464666 610.428 0.556612 610.858 0.735437C611.287 0.914268 611.677 1.17651 612.006 1.50733C612.334 1.83817 612.595 2.2311 612.773 2.66372C612.951 3.09642 613.043 3.56023 613.043 4.0287V58.0307C613.043 58.977 612.669 59.8839 612.006 60.5522Z" fill="#181818" stroke="#454545" stroke-width="0.929557"></path>
  </g>
</svg>
