<?xml version="1.0" encoding="UTF-8"?>
<svg xmlns="http://www.w3.org/2000/svg" width="114" height="34" viewBox="0 0 114 34" fill="none">
  <g id="IconAnual">
    <path id="Union" d="M77.2856 31L77.2856 30.8003H77.0859H31.605H31.5219L31.4633 30.8593L29.8904 32.443C29.7293 32.6052 29.538 32.7337 29.3276 32.8213C29.1171 32.9089 28.8917 32.9538 28.664 32.9536H28.6638L1.38089 32.9506C1.1127 32.9506 0.855261 32.8435 0.665249 32.6522C0.475197 32.461 0.368202 32.2013 0.368202 31.9303L0.366956 12.653L0.366956 12.6527C0.366703 12.4231 0.411465 12.1958 0.498645 11.9837C0.5845 11.7748 0.709817 11.5848 0.867544 11.4242L14.1406 0.662126L14.1489 0.655399L14.1564 0.647824C14.4418 0.360848 14.8284 0.199835 15.2313 0.199745C15.2313 0.199745 15.2313 0.199745 15.2313 0.199745H35.1951C35.3947 0.199696 35.5923 0.239206 35.7767 0.316048C35.9611 0.392892 36.1287 0.50558 36.27 0.647738C36.4113 0.789899 36.5234 0.958743 36.5999 1.14466C36.6764 1.33058 36.7158 1.52989 36.7157 1.73118V3.00003V3.19974H36.9154H87.8576H87.9283L87.9833 3.15516L91.0581 0.6621L91.0663 0.655373L91.0739 0.647798C91.3593 0.360812 91.7459 0.199798 92.1488 0.199718L112.113 0.199718C112.312 0.19967 112.51 0.23918 112.694 0.316022C112.879 0.392866 113.046 0.505554 113.188 0.64771L113.329 0.507127L113.188 0.647713C113.329 0.789873 113.441 0.958717 113.517 1.14463C113.594 1.33055 113.633 1.52986 113.633 1.73116V24.9362C113.633 25.3428 113.473 25.7325 113.187 26.0197L106.808 32.443C106.647 32.6051 106.455 32.7337 106.245 32.8213C106.035 32.9089 105.809 32.9538 105.582 32.9535H105.581L78.2984 32.9506C78.0302 32.9506 77.7728 32.8434 77.5827 32.6522C77.3927 32.461 77.2857 32.2013 77.2857 31.9303L77.2856 31Z" fill="#181818" stroke="#454545" stroke-width="0.399437"></path>
    <g id="anual">
      <path d="M37.136 20.9996L40.388 12.7676H41.888L45.152 20.9996H43.916L43.112 18.9596H39.104L38.312 20.9996H37.136ZM39.476 17.9876H42.728L41.732 15.4076C41.708 15.3356 41.672 15.2356 41.624 15.1076C41.576 14.9796 41.524 14.8396 41.468 14.6876C41.412 14.5276 41.356 14.3676 41.3 14.2076C41.244 14.0396 41.192 13.8876 41.144 13.7516H41.072C41.016 13.9116 40.952 14.0956 40.88 14.3036C40.808 14.5116 40.736 14.7156 40.664 14.9156C40.592 15.1076 40.532 15.2716 40.484 15.4076L39.476 17.9876Z" fill="#B5FF00"></path>
      <path d="M46.2637 20.9996V12.7676H47.3677L51.3637 18.1916C51.4037 18.2396 51.4557 18.3116 51.5197 18.4076C51.5837 18.5036 51.6477 18.5996 51.7117 18.6956C51.7757 18.7836 51.8277 18.8636 51.8677 18.9356H51.9157C51.9157 18.8076 51.9157 18.6836 51.9157 18.5636C51.9157 18.4356 51.9157 18.3116 51.9157 18.1916V12.7676H53.0317V20.9996H51.9877L47.9437 15.4796C47.8877 15.3916 47.8037 15.2676 47.6917 15.1076C47.5877 14.9476 47.4997 14.8196 47.4277 14.7236H47.3677C47.3677 14.8516 47.3677 14.9796 47.3677 15.1076C47.3677 15.2276 47.3677 15.3516 47.3677 15.4796V20.9996H46.2637Z" fill="#B5FF00"></path>
      <path d="M58.4356 21.1436C57.7396 21.1436 57.1396 21.0316 56.6356 20.8076C56.1316 20.5836 55.7436 20.2316 55.4716 19.7516C55.2076 19.2636 55.0756 18.6396 55.0756 17.8796V12.7676H56.2156V17.9996C56.2156 18.7196 56.4076 19.2596 56.7916 19.6196C57.1836 19.9796 57.7316 20.1596 58.4356 20.1596C59.1476 20.1596 59.7036 19.9796 60.1036 19.6196C60.5036 19.2596 60.7036 18.7196 60.7036 17.9996V12.7676H61.8316V17.8796C61.8316 18.6396 61.6956 19.2636 61.4236 19.7516C61.1516 20.2316 60.7596 20.5836 60.2476 20.8076C59.7436 21.0316 59.1396 21.1436 58.4356 21.1436Z" fill="#B5FF00"></path>
      <path d="M62.7532 20.9996L66.0052 12.7676H67.5052L70.7692 20.9996H69.5332L68.7292 18.9596H64.7212L63.9292 20.9996H62.7532ZM65.0932 17.9876H68.3452L67.3492 15.4076C67.3252 15.3356 67.2892 15.2356 67.2412 15.1076C67.1932 14.9796 67.1412 14.8396 67.0852 14.6876C67.0292 14.5276 66.9732 14.3676 66.9172 14.2076C66.8612 14.0396 66.8092 13.8876 66.7612 13.7516H66.6892C66.6332 13.9116 66.5692 14.0956 66.4972 14.3036C66.4252 14.5116 66.3532 14.7156 66.2812 14.9156C66.2092 15.1076 66.1492 15.2716 66.1012 15.4076L65.0932 17.9876Z" fill="#B5FF00"></path>
      <path d="M71.8809 20.9996V12.7676H73.0209V20.0036H77.1129V20.9996H71.8809Z" fill="#B5FF00"></path>
    </g>
  </g>
</svg>
