<?xml version="1.0" encoding="UTF-8"?>
<svg xmlns="http://www.w3.org/2000/svg" width="115" height="34" viewBox="0 0 115 34" fill="none">
  <g id="IconMensal">
    <path id="Union" d="M77.7855 31L77.7855 30.8003H77.5858H32.1049H32.0218L31.9632 30.8593L30.3903 32.443C30.2292 32.6052 30.0379 32.7337 29.8274 32.8213C29.617 32.9089 29.3915 32.9538 29.1639 32.9536H29.1637L1.88077 32.9506C1.61258 32.9506 1.35514 32.8435 1.16513 32.6522C0.975075 32.461 0.86808 32.2013 0.86808 31.9303L0.866834 12.653L0.866834 12.6527C0.866581 12.4231 0.911343 12.1958 0.998523 11.9837C1.08438 11.7748 1.2097 11.5848 1.36742 11.4242L14.6404 0.662126L14.6487 0.655399L14.6563 0.647824C14.9417 0.360848 15.3283 0.199835 15.7312 0.199745C15.7312 0.199745 15.7312 0.199745 15.7312 0.199745H35.695C35.8946 0.199696 36.0922 0.239206 36.2766 0.316048C36.461 0.392892 36.6286 0.50558 36.7699 0.647738C36.9112 0.789899 37.0233 0.958743 37.0998 1.14466C37.1763 1.33058 37.2156 1.52989 37.2156 1.73118V3.00003V3.19974H37.4153H88.3574H88.4282L88.4832 3.15516L91.5579 0.6621L91.5662 0.655373L91.5738 0.647798C91.8592 0.360812 92.2458 0.199798 92.6487 0.199718L112.612 0.199718C112.812 0.19967 113.01 0.23918 113.194 0.316022C113.378 0.392866 113.546 0.505554 113.687 0.64771L113.829 0.507127L113.687 0.647713C113.829 0.789873 113.941 0.958717 114.017 1.14463C114.094 1.33055 114.133 1.52986 114.133 1.73116V24.9362C114.133 25.3428 113.973 25.7325 113.687 26.0197L107.308 32.443C107.147 32.6051 106.955 32.7337 106.745 32.8213C106.535 32.9089 106.309 32.9538 106.081 32.9535H106.081L78.7983 32.9506C78.5301 32.9506 78.2726 32.8434 78.0826 32.6522C77.8926 32.461 77.7856 32.2013 77.7856 31.9303L77.7855 31Z" fill="#181818" stroke="#454545" stroke-width="0.399437"></path>
    <g id="mensal">
      <path d="M33.7968 21V12.768H35.5608L37.4328 18.108C37.4808 18.252 37.5288 18.412 37.5768 18.588C37.6328 18.756 37.6808 18.916 37.7208 19.068C37.7688 19.22 37.8048 19.352 37.8288 19.464H37.9128C37.9368 19.344 37.9688 19.208 38.0088 19.056C38.0488 18.896 38.0928 18.732 38.1408 18.564C38.1888 18.396 38.2328 18.244 38.2728 18.108L40.1448 12.768H41.8968V21H40.7568V16.176C40.7568 15.928 40.7608 15.66 40.7688 15.372C40.7768 15.076 40.7848 14.808 40.7928 14.568C40.8008 14.32 40.8048 14.144 40.8048 14.04H40.7088C40.6848 14.144 40.6448 14.292 40.5888 14.484C40.5328 14.668 40.4728 14.864 40.4088 15.072C40.3528 15.272 40.3008 15.452 40.2528 15.612L38.3208 21H37.3368L35.4048 15.612C35.3568 15.476 35.3048 15.32 35.2488 15.144C35.2008 14.96 35.1488 14.772 35.0928 14.58C35.0448 14.388 34.9968 14.208 34.9488 14.04H34.8648C34.8728 14.216 34.8768 14.436 34.8768 14.7C34.8848 14.956 34.8888 15.216 34.8888 15.48C34.8968 15.736 34.9008 15.968 34.9008 16.176V21H33.7968Z" fill="#B5FF00"></path>
      <path d="M43.9569 21V12.768H50.2929V13.752H45.0969V16.296H49.7649V17.28H45.0969V20.016H50.3649V21H43.9569Z" fill="#B5FF00"></path>
      <path d="M52.078 21V12.768H53.182L57.178 18.192C57.218 18.24 57.27 18.312 57.334 18.408C57.398 18.504 57.462 18.6 57.526 18.696C57.59 18.784 57.642 18.864 57.682 18.936H57.73C57.73 18.808 57.73 18.684 57.73 18.564C57.73 18.436 57.73 18.312 57.73 18.192V12.768H58.846V21H57.802L53.758 15.48C53.702 15.392 53.618 15.268 53.506 15.108C53.402 14.948 53.314 14.82 53.242 14.724H53.182C53.182 14.852 53.182 14.98 53.182 15.108C53.182 15.228 53.182 15.352 53.182 15.48V21H52.078Z" fill="#B5FF00"></path>
      <path d="M63.9379 21.144C63.4899 21.144 63.0579 21.1 62.6419 21.012C62.2339 20.924 61.8699 20.784 61.5499 20.592C61.2299 20.392 60.9739 20.136 60.7819 19.824C60.5979 19.512 60.5059 19.128 60.5059 18.672C60.5059 18.632 60.5059 18.592 60.5059 18.552C60.5139 18.512 60.5179 18.472 60.5179 18.432H61.6699C61.6699 18.456 61.6659 18.496 61.6579 18.552C61.6579 18.6 61.6579 18.644 61.6579 18.684C61.6579 19.004 61.7539 19.276 61.9459 19.5C62.1379 19.724 62.4019 19.892 62.7379 20.004C63.0819 20.108 63.4699 20.16 63.9019 20.16C64.0939 20.16 64.2939 20.148 64.5019 20.124C64.7179 20.1 64.9219 20.06 65.1139 20.004C65.3139 19.94 65.4899 19.86 65.6419 19.764C65.8019 19.66 65.9259 19.536 66.0139 19.392C66.1099 19.24 66.1579 19.056 66.1579 18.84C66.1579 18.568 66.0779 18.344 65.9179 18.168C65.7659 17.984 65.5619 17.836 65.3059 17.724C65.0499 17.604 64.7579 17.5 64.4299 17.412C64.1099 17.316 63.7779 17.224 63.4339 17.136C63.0899 17.048 62.7539 16.948 62.4259 16.836C62.1059 16.716 61.8179 16.572 61.5619 16.404C61.3059 16.228 61.0979 16.012 60.9379 15.756C60.7859 15.5 60.7099 15.188 60.7099 14.82C60.7099 14.476 60.7779 14.168 60.9139 13.896C61.0579 13.624 61.2659 13.396 61.5379 13.212C61.8179 13.02 62.1619 12.876 62.5699 12.78C62.9779 12.676 63.4459 12.624 63.9739 12.624C64.4059 12.624 64.8059 12.672 65.1739 12.768C65.5499 12.856 65.8779 12.996 66.1579 13.188C66.4459 13.372 66.6699 13.608 66.8299 13.896C66.9899 14.184 67.0699 14.532 67.0699 14.94V15.084H65.9419V14.904C65.9419 14.632 65.8579 14.4 65.6899 14.208C65.5219 14.016 65.2899 13.868 64.9939 13.764C64.7059 13.66 64.3779 13.608 64.0099 13.608C63.5299 13.608 63.1299 13.656 62.8099 13.752C62.4899 13.84 62.2499 13.972 62.0899 14.148C61.9379 14.316 61.8619 14.508 61.8619 14.724C61.8619 14.972 61.9379 15.18 62.0899 15.348C62.2499 15.516 62.4579 15.656 62.7139 15.768C62.9699 15.872 63.2619 15.968 63.5899 16.056C63.9179 16.144 64.2499 16.236 64.5859 16.332C64.9299 16.42 65.2619 16.524 65.5819 16.644C65.9099 16.756 66.2019 16.9 66.4579 17.076C66.7219 17.244 66.9299 17.46 67.0819 17.724C67.2339 17.98 67.3099 18.296 67.3099 18.672C67.3099 19.256 67.1659 19.732 66.8779 20.1C66.5899 20.46 66.1939 20.724 65.6899 20.892C65.1859 21.06 64.6019 21.144 63.9379 21.144Z" fill="#B5FF00"></path>
      <path d="M68.0402 21L71.2922 12.768H72.7922L76.0562 21H74.8202L74.0162 18.96H70.0082L69.2162 21H68.0402ZM70.3802 17.988H73.6322L72.6362 15.408C72.6122 15.336 72.5762 15.236 72.5282 15.108C72.4802 14.98 72.4282 14.84 72.3722 14.688C72.3162 14.528 72.2602 14.368 72.2042 14.208C72.1482 14.04 72.0962 13.888 72.0482 13.752H71.9762C71.9202 13.912 71.8562 14.096 71.7842 14.304C71.7122 14.512 71.6402 14.716 71.5682 14.916C71.4962 15.108 71.4362 15.272 71.3882 15.408L70.3802 17.988Z" fill="#B5FF00"></path>
      <path d="M77.1678 21V12.768H78.3078V20.004H82.3998V21H77.1678Z" fill="#B5FF00"></path>
    </g>
  </g>
</svg>
